<mxfile host="Electron" agent="Mozilla/5.0 (Windows NT 10.0; Win64; x64) AppleWebKit/537.36 (KHTML, like Gecko) draw.io/24.7.17 Chrome/128.0.6613.36 Electron/32.0.1 Safari/537.36" version="24.7.17">
  <diagram name="Page-1" id="2YBvvXClWsGukQMizWep">
    <mxGraphModel dx="1594" dy="945" grid="1" gridSize="10" guides="1" tooltips="1" connect="1" arrows="1" fold="1" page="1" pageScale="1" pageWidth="850" pageHeight="1100" math="0" shadow="0">
      <root>
        <mxCell id="0" />
        <mxCell id="1" parent="0" />
        <mxCell id="tDjdki0yMLphuaXDx4tr-15" value="Client" style="shape=umlLifeline;perimeter=lifelinePerimeter;whiteSpace=wrap;html=1;container=0;dropTarget=0;collapsible=0;recursiveResize=0;outlineConnect=0;portConstraint=eastwest;newEdgeStyle={&quot;edgeStyle&quot;:&quot;elbowEdgeStyle&quot;,&quot;elbow&quot;:&quot;vertical&quot;,&quot;curved&quot;:0,&quot;rounded&quot;:0};" parent="1" vertex="1">
          <mxGeometry x="550" y="23" width="100" height="670" as="geometry" />
        </mxCell>
        <mxCell id="tDjdki0yMLphuaXDx4tr-16" value="" style="html=1;points=[];perimeter=orthogonalPerimeter;outlineConnect=0;targetShapes=umlLifeline;portConstraint=eastwest;newEdgeStyle={&quot;edgeStyle&quot;:&quot;elbowEdgeStyle&quot;,&quot;elbow&quot;:&quot;vertical&quot;,&quot;curved&quot;:0,&quot;rounded&quot;:0};" parent="tDjdki0yMLphuaXDx4tr-15" vertex="1">
          <mxGeometry x="45" y="70" width="10" height="580" as="geometry" />
        </mxCell>
        <mxCell id="tDjdki0yMLphuaXDx4tr-46" value="" style="shape=umlDestroy;whiteSpace=wrap;html=1;strokeWidth=3;targetShapes=umlLifeline;" parent="tDjdki0yMLphuaXDx4tr-15" vertex="1">
          <mxGeometry x="35" y="638" width="30" height="30" as="geometry" />
        </mxCell>
        <mxCell id="tDjdki0yMLphuaXDx4tr-17" value="Server" style="shape=umlLifeline;perimeter=lifelinePerimeter;whiteSpace=wrap;html=1;container=0;dropTarget=0;collapsible=0;recursiveResize=0;outlineConnect=0;portConstraint=eastwest;newEdgeStyle={&quot;edgeStyle&quot;:&quot;elbowEdgeStyle&quot;,&quot;elbow&quot;:&quot;vertical&quot;,&quot;curved&quot;:0,&quot;rounded&quot;:0};" parent="1" vertex="1">
          <mxGeometry x="730" y="23" width="100" height="670" as="geometry" />
        </mxCell>
        <mxCell id="tDjdki0yMLphuaXDx4tr-18" value="" style="html=1;points=[];perimeter=orthogonalPerimeter;outlineConnect=0;targetShapes=umlLifeline;portConstraint=eastwest;newEdgeStyle={&quot;edgeStyle&quot;:&quot;elbowEdgeStyle&quot;,&quot;elbow&quot;:&quot;vertical&quot;,&quot;curved&quot;:0,&quot;rounded&quot;:0};" parent="tDjdki0yMLphuaXDx4tr-17" vertex="1">
          <mxGeometry x="45" y="80" width="10" height="570" as="geometry" />
        </mxCell>
        <mxCell id="tDjdki0yMLphuaXDx4tr-19" value="(connection)" style="html=1;verticalAlign=bottom;endArrow=block;edgeStyle=elbowEdgeStyle;elbow=horizontal;curved=0;rounded=0;" parent="1" edge="1">
          <mxGeometry relative="1" as="geometry">
            <mxPoint x="605" y="138" as="sourcePoint" />
            <Array as="points">
              <mxPoint x="690" y="138" />
            </Array>
            <mxPoint x="775" y="138" as="targetPoint" />
          </mxGeometry>
        </mxCell>
        <mxCell id="tDjdki0yMLphuaXDx4tr-28" value="Connection" style="text;html=1;align=center;verticalAlign=middle;resizable=0;points=[];autosize=1;strokeColor=#36393d;fillColor=#eeeeee;" parent="1" vertex="1">
          <mxGeometry x="650" y="88" width="80" height="30" as="geometry" />
        </mxCell>
        <mxCell id="tDjdki0yMLphuaXDx4tr-30" value="Game preparation" style="text;html=1;align=center;verticalAlign=middle;resizable=0;points=[];autosize=1;strokeColor=#36393d;fillColor=#eeeeee;" parent="1" vertex="1">
          <mxGeometry x="630" y="160" width="120" height="30" as="geometry" />
        </mxCell>
        <mxCell id="tDjdki0yMLphuaXDx4tr-31" value="STRT" style="html=1;verticalAlign=bottom;endArrow=block;edgeStyle=elbowEdgeStyle;elbow=vertical;curved=0;rounded=0;" parent="1" edge="1">
          <mxGeometry relative="1" as="geometry">
            <mxPoint x="605" y="215" as="sourcePoint" />
            <Array as="points">
              <mxPoint x="690" y="215" />
            </Array>
            <mxPoint x="775" y="215" as="targetPoint" />
          </mxGeometry>
        </mxCell>
        <mxCell id="tDjdki0yMLphuaXDx4tr-32" value="ACKK" style="html=1;verticalAlign=bottom;endArrow=open;dashed=1;endSize=8;edgeStyle=elbowEdgeStyle;elbow=horizontal;curved=0;rounded=0;" parent="1" edge="1">
          <mxGeometry relative="1" as="geometry">
            <mxPoint x="605" y="246" as="targetPoint" />
            <Array as="points">
              <mxPoint x="700" y="246" />
            </Array>
            <mxPoint x="775" y="246" as="sourcePoint" />
          </mxGeometry>
        </mxCell>
        <mxCell id="tDjdki0yMLphuaXDx4tr-33" value="Game loop" style="text;html=1;align=center;verticalAlign=middle;resizable=0;points=[];autosize=1;strokeColor=#36393d;fillColor=#eeeeee;" parent="1" vertex="1">
          <mxGeometry x="650" y="256" width="80" height="30" as="geometry" />
        </mxCell>
        <mxCell id="tDjdki0yMLphuaXDx4tr-34" value="loop" style="shape=umlFrame;whiteSpace=wrap;html=1;pointerEvents=0;width=50;height=20;" parent="1" vertex="1">
          <mxGeometry x="570" y="293" width="240" height="80" as="geometry" />
        </mxCell>
        <mxCell id="tDjdki0yMLphuaXDx4tr-35" value="FLYY" style="html=1;verticalAlign=bottom;endArrow=block;edgeStyle=elbowEdgeStyle;elbow=vertical;curved=0;rounded=0;" parent="1" edge="1">
          <mxGeometry relative="1" as="geometry">
            <mxPoint x="605" y="323" as="sourcePoint" />
            <Array as="points">
              <mxPoint x="690" y="323" />
            </Array>
            <mxPoint x="775" y="323" as="targetPoint" />
          </mxGeometry>
        </mxCell>
        <mxCell id="tDjdki0yMLphuaXDx4tr-36" value="DATA" style="html=1;verticalAlign=bottom;endArrow=open;dashed=1;endSize=8;edgeStyle=elbowEdgeStyle;elbow=vertical;curved=0;rounded=0;" parent="1" edge="1">
          <mxGeometry relative="1" as="geometry">
            <mxPoint x="605" y="354" as="targetPoint" />
            <Array as="points">
              <mxPoint x="700" y="354" />
            </Array>
            <mxPoint x="775" y="354" as="sourcePoint" />
          </mxGeometry>
        </mxCell>
        <mxCell id="tDjdki0yMLphuaXDx4tr-37" value="DEAD" style="html=1;verticalAlign=bottom;endArrow=open;dashed=1;endSize=8;edgeStyle=elbowEdgeStyle;elbow=vertical;curved=0;rounded=0;" parent="1" edge="1">
          <mxGeometry relative="1" as="geometry">
            <mxPoint x="605" y="436" as="targetPoint" />
            <Array as="points">
              <mxPoint x="700" y="436" />
            </Array>
            <mxPoint x="775" y="436" as="sourcePoint" />
          </mxGeometry>
        </mxCell>
        <mxCell id="tDjdki0yMLphuaXDx4tr-38" value="Game end" style="text;html=1;align=center;verticalAlign=middle;resizable=0;points=[];autosize=1;strokeColor=#36393d;fillColor=#eeeeee;" parent="1" vertex="1">
          <mxGeometry x="650" y="382" width="80" height="30" as="geometry" />
        </mxCell>
        <mxCell id="tDjdki0yMLphuaXDx4tr-39" value="Error handling" style="text;html=1;align=center;verticalAlign=middle;resizable=0;points=[];autosize=1;strokeColor=#36393d;fillColor=#eeeeee;" parent="1" vertex="1">
          <mxGeometry x="640" y="446" width="100" height="30" as="geometry" />
        </mxCell>
        <mxCell id="tDjdki0yMLphuaXDx4tr-40" value="error" style="shape=umlFrame;whiteSpace=wrap;html=1;pointerEvents=0;width=50;height=20;" parent="1" vertex="1">
          <mxGeometry x="570" y="485" width="240" height="80" as="geometry" />
        </mxCell>
        <mxCell id="tDjdki0yMLphuaXDx4tr-41" value="UNKNOW" style="html=1;verticalAlign=bottom;endArrow=block;edgeStyle=elbowEdgeStyle;elbow=vertical;curved=0;rounded=0;" parent="1" edge="1">
          <mxGeometry relative="1" as="geometry">
            <mxPoint x="605" y="514.58" as="sourcePoint" />
            <Array as="points">
              <mxPoint x="690" y="514.58" />
            </Array>
            <mxPoint x="775" y="514.58" as="targetPoint" />
          </mxGeometry>
        </mxCell>
        <mxCell id="tDjdki0yMLphuaXDx4tr-42" value="EROR" style="html=1;verticalAlign=bottom;endArrow=open;dashed=1;endSize=8;edgeStyle=elbowEdgeStyle;elbow=vertical;curved=0;rounded=0;" parent="1" edge="1">
          <mxGeometry relative="1" as="geometry">
            <mxPoint x="605" y="545" as="targetPoint" />
            <Array as="points">
              <mxPoint x="700" y="545" />
            </Array>
            <mxPoint x="775" y="545" as="sourcePoint" />
          </mxGeometry>
        </mxCell>
        <mxCell id="tDjdki0yMLphuaXDx4tr-43" value="Exit game" style="text;html=1;align=center;verticalAlign=middle;resizable=0;points=[];autosize=1;strokeColor=#36393d;fillColor=#eeeeee;" parent="1" vertex="1">
          <mxGeometry x="650" y="575" width="80" height="30" as="geometry" />
        </mxCell>
        <mxCell id="tDjdki0yMLphuaXDx4tr-44" value="QUIT" style="html=1;verticalAlign=bottom;endArrow=block;edgeStyle=elbowEdgeStyle;elbow=vertical;curved=0;rounded=0;" parent="1" edge="1">
          <mxGeometry relative="1" as="geometry">
            <mxPoint x="605" y="628" as="sourcePoint" />
            <Array as="points">
              <mxPoint x="690" y="628" />
            </Array>
            <mxPoint x="775" y="628" as="targetPoint" />
          </mxGeometry>
        </mxCell>
        <mxCell id="tDjdki0yMLphuaXDx4tr-45" value="ACKK" style="html=1;verticalAlign=bottom;endArrow=open;dashed=1;endSize=8;edgeStyle=elbowEdgeStyle;elbow=vertical;curved=0;rounded=0;" parent="1" edge="1">
          <mxGeometry relative="1" as="geometry">
            <mxPoint x="605" y="658" as="targetPoint" />
            <Array as="points">
              <mxPoint x="700" y="658" />
            </Array>
            <mxPoint x="775" y="658" as="sourcePoint" />
          </mxGeometry>
        </mxCell>
        <mxCell id="tDjdki0yMLphuaXDx4tr-47" value="Client 1" style="shape=umlLifeline;perimeter=lifelinePerimeter;whiteSpace=wrap;html=1;container=0;dropTarget=0;collapsible=0;recursiveResize=0;outlineConnect=0;portConstraint=eastwest;newEdgeStyle={&quot;edgeStyle&quot;:&quot;elbowEdgeStyle&quot;,&quot;elbow&quot;:&quot;vertical&quot;,&quot;curved&quot;:0,&quot;rounded&quot;:0};" parent="1" vertex="1">
          <mxGeometry x="40" y="30" width="100" height="1003" as="geometry" />
        </mxCell>
        <mxCell id="tDjdki0yMLphuaXDx4tr-48" value="" style="html=1;points=[];perimeter=orthogonalPerimeter;outlineConnect=0;targetShapes=umlLifeline;portConstraint=eastwest;newEdgeStyle={&quot;edgeStyle&quot;:&quot;elbowEdgeStyle&quot;,&quot;elbow&quot;:&quot;vertical&quot;,&quot;curved&quot;:0,&quot;rounded&quot;:0};" parent="tDjdki0yMLphuaXDx4tr-47" vertex="1">
          <mxGeometry x="45" y="70" width="10" height="910" as="geometry" />
        </mxCell>
        <mxCell id="tDjdki0yMLphuaXDx4tr-86" value="" style="shape=umlDestroy;whiteSpace=wrap;html=1;strokeWidth=3;targetShapes=umlLifeline;" parent="tDjdki0yMLphuaXDx4tr-47" vertex="1">
          <mxGeometry x="35" y="969" width="30" height="30" as="geometry" />
        </mxCell>
        <mxCell id="tDjdki0yMLphuaXDx4tr-50" value="Client 2" style="shape=umlLifeline;perimeter=lifelinePerimeter;whiteSpace=wrap;html=1;container=0;dropTarget=0;collapsible=0;recursiveResize=0;outlineConnect=0;portConstraint=eastwest;newEdgeStyle={&quot;edgeStyle&quot;:&quot;elbowEdgeStyle&quot;,&quot;elbow&quot;:&quot;vertical&quot;,&quot;curved&quot;:0,&quot;rounded&quot;:0};" parent="1" vertex="1">
          <mxGeometry x="160" y="30" width="100" height="1003" as="geometry" />
        </mxCell>
        <mxCell id="tDjdki0yMLphuaXDx4tr-51" value="" style="html=1;points=[];perimeter=orthogonalPerimeter;outlineConnect=0;targetShapes=umlLifeline;portConstraint=eastwest;newEdgeStyle={&quot;edgeStyle&quot;:&quot;elbowEdgeStyle&quot;,&quot;elbow&quot;:&quot;vertical&quot;,&quot;curved&quot;:0,&quot;rounded&quot;:0};" parent="tDjdki0yMLphuaXDx4tr-50" vertex="1">
          <mxGeometry x="45" y="70" width="10" height="910" as="geometry" />
        </mxCell>
        <mxCell id="tDjdki0yMLphuaXDx4tr-87" value="" style="shape=umlDestroy;whiteSpace=wrap;html=1;strokeWidth=3;targetShapes=umlLifeline;" parent="tDjdki0yMLphuaXDx4tr-50" vertex="1">
          <mxGeometry x="35" y="969" width="30" height="30" as="geometry" />
        </mxCell>
        <mxCell id="tDjdki0yMLphuaXDx4tr-53" value="Server" style="shape=umlLifeline;perimeter=lifelinePerimeter;whiteSpace=wrap;html=1;container=0;dropTarget=0;collapsible=0;recursiveResize=0;outlineConnect=0;portConstraint=eastwest;newEdgeStyle={&quot;edgeStyle&quot;:&quot;elbowEdgeStyle&quot;,&quot;elbow&quot;:&quot;vertical&quot;,&quot;curved&quot;:0,&quot;rounded&quot;:0};" parent="1" vertex="1">
          <mxGeometry x="400" y="30" width="100" height="1003" as="geometry" />
        </mxCell>
        <mxCell id="tDjdki0yMLphuaXDx4tr-54" value="" style="html=1;points=[];perimeter=orthogonalPerimeter;outlineConnect=0;targetShapes=umlLifeline;portConstraint=eastwest;newEdgeStyle={&quot;edgeStyle&quot;:&quot;elbowEdgeStyle&quot;,&quot;elbow&quot;:&quot;vertical&quot;,&quot;curved&quot;:0,&quot;rounded&quot;:0};" parent="tDjdki0yMLphuaXDx4tr-53" vertex="1">
          <mxGeometry x="45" y="70" width="10" height="920" as="geometry" />
        </mxCell>
        <mxCell id="tDjdki0yMLphuaXDx4tr-57" value="Connection" style="text;html=1;align=center;verticalAlign=middle;resizable=0;points=[];autosize=1;strokeColor=#36393d;fillColor=#eeeeee;" parent="1" vertex="1">
          <mxGeometry x="290" y="78" width="80" height="30" as="geometry" />
        </mxCell>
        <mxCell id="tDjdki0yMLphuaXDx4tr-58" value="(connection)" style="html=1;verticalAlign=bottom;endArrow=block;edgeStyle=elbowEdgeStyle;elbow=vertical;curved=0;rounded=0;" parent="1" edge="1">
          <mxGeometry relative="1" as="geometry">
            <mxPoint x="95" y="134" as="sourcePoint" />
            <Array as="points">
              <mxPoint x="330" y="134" />
            </Array>
            <mxPoint x="445" y="134" as="targetPoint" />
          </mxGeometry>
        </mxCell>
        <mxCell id="tDjdki0yMLphuaXDx4tr-60" value="(connection)" style="html=1;verticalAlign=bottom;endArrow=block;edgeStyle=elbowEdgeStyle;elbow=horizontal;curved=0;rounded=0;" parent="1" edge="1">
          <mxGeometry relative="1" as="geometry">
            <mxPoint x="215" y="160" as="sourcePoint" />
            <Array as="points">
              <mxPoint x="335" y="160" />
            </Array>
            <mxPoint x="445" y="160" as="targetPoint" />
          </mxGeometry>
        </mxCell>
        <mxCell id="tDjdki0yMLphuaXDx4tr-62" value="Lobby creation &amp;amp; join" style="text;html=1;align=center;verticalAlign=middle;resizable=0;points=[];autosize=1;strokeColor=#36393d;fillColor=#eeeeee;" parent="1" vertex="1">
          <mxGeometry x="260" y="183" width="140" height="30" as="geometry" />
        </mxCell>
        <mxCell id="tDjdki0yMLphuaXDx4tr-63" value="JOIN" style="html=1;verticalAlign=bottom;endArrow=block;edgeStyle=elbowEdgeStyle;elbow=vertical;curved=0;rounded=0;" parent="1" edge="1">
          <mxGeometry relative="1" as="geometry">
            <mxPoint x="95" y="236" as="sourcePoint" />
            <Array as="points">
              <mxPoint x="325" y="236" />
            </Array>
            <mxPoint x="445" y="236" as="targetPoint" />
          </mxGeometry>
        </mxCell>
        <mxCell id="tDjdki0yMLphuaXDx4tr-64" value="DATA" style="html=1;verticalAlign=bottom;endArrow=open;dashed=1;endSize=8;edgeStyle=elbowEdgeStyle;elbow=vertical;curved=0;rounded=0;" parent="1" edge="1">
          <mxGeometry relative="1" as="geometry">
            <mxPoint x="95" y="267" as="targetPoint" />
            <Array as="points">
              <mxPoint x="350" y="267" />
            </Array>
            <mxPoint x="445" y="267" as="sourcePoint" />
          </mxGeometry>
        </mxCell>
        <mxCell id="tDjdki0yMLphuaXDx4tr-65" value="LIST" style="html=1;verticalAlign=bottom;endArrow=block;edgeStyle=elbowEdgeStyle;elbow=vertical;curved=0;rounded=0;" parent="1" edge="1">
          <mxGeometry relative="1" as="geometry">
            <mxPoint x="215" y="297" as="sourcePoint" />
            <Array as="points">
              <mxPoint x="335" y="297" />
            </Array>
            <mxPoint x="445" y="297" as="targetPoint" />
          </mxGeometry>
        </mxCell>
        <mxCell id="tDjdki0yMLphuaXDx4tr-66" value="DATA" style="html=1;verticalAlign=bottom;endArrow=open;dashed=1;endSize=8;edgeStyle=elbowEdgeStyle;elbow=vertical;curved=0;rounded=0;" parent="1" edge="1">
          <mxGeometry relative="1" as="geometry">
            <mxPoint x="215" y="327" as="targetPoint" />
            <Array as="points">
              <mxPoint x="350" y="327" />
            </Array>
            <mxPoint x="445" y="327" as="sourcePoint" />
          </mxGeometry>
        </mxCell>
        <mxCell id="tDjdki0yMLphuaXDx4tr-67" value="JOIN &amp;lt;num&amp;gt;" style="html=1;verticalAlign=bottom;endArrow=block;edgeStyle=elbowEdgeStyle;elbow=horizontal;curved=0;rounded=0;" parent="1" edge="1">
          <mxGeometry relative="1" as="geometry">
            <mxPoint x="216" y="357" as="sourcePoint" />
            <Array as="points">
              <mxPoint x="336" y="357" />
            </Array>
            <mxPoint x="446" y="357" as="targetPoint" />
          </mxGeometry>
        </mxCell>
        <mxCell id="tDjdki0yMLphuaXDx4tr-68" value="ACKK" style="html=1;verticalAlign=bottom;endArrow=open;dashed=1;endSize=8;edgeStyle=elbowEdgeStyle;elbow=vertical;curved=0;rounded=0;" parent="1" edge="1">
          <mxGeometry x="0.0029" relative="1" as="geometry">
            <mxPoint x="216" y="387" as="targetPoint" />
            <Array as="points">
              <mxPoint x="351" y="387" />
            </Array>
            <mxPoint x="446" y="387" as="sourcePoint" />
            <mxPoint as="offset" />
          </mxGeometry>
        </mxCell>
        <mxCell id="tDjdki0yMLphuaXDx4tr-69" value="ACKK" style="html=1;verticalAlign=bottom;endArrow=open;dashed=1;endSize=8;edgeStyle=elbowEdgeStyle;elbow=vertical;curved=0;rounded=0;" parent="1" edge="1">
          <mxGeometry x="0.0029" relative="1" as="geometry">
            <mxPoint x="95.00000000000011" y="510" as="targetPoint" />
            <Array as="points">
              <mxPoint x="350" y="510" />
            </Array>
            <mxPoint x="445" y="510" as="sourcePoint" />
            <mxPoint as="offset" />
          </mxGeometry>
        </mxCell>
        <mxCell id="tDjdki0yMLphuaXDx4tr-70" value="ACKK" style="html=1;verticalAlign=bottom;endArrow=open;dashed=1;endSize=8;edgeStyle=elbowEdgeStyle;elbow=vertical;curved=0;rounded=0;" parent="1" edge="1">
          <mxGeometry x="0.0029" relative="1" as="geometry">
            <mxPoint x="215" y="540" as="targetPoint" />
            <Array as="points">
              <mxPoint x="350" y="540" />
            </Array>
            <mxPoint x="445" y="540" as="sourcePoint" />
            <mxPoint as="offset" />
          </mxGeometry>
        </mxCell>
        <mxCell id="tDjdki0yMLphuaXDx4tr-71" value="Start the game" style="text;html=1;align=center;verticalAlign=middle;resizable=0;points=[];autosize=1;strokeColor=#36393d;fillColor=#eeeeee;" parent="1" vertex="1">
          <mxGeometry x="280" y="405" width="100" height="30" as="geometry" />
        </mxCell>
        <mxCell id="tDjdki0yMLphuaXDx4tr-72" value="Game loop" style="text;html=1;align=center;verticalAlign=middle;resizable=0;points=[];autosize=1;strokeColor=#36393d;fillColor=#eeeeee;" parent="1" vertex="1">
          <mxGeometry x="290" y="552" width="80" height="30" as="geometry" />
        </mxCell>
        <mxCell id="tDjdki0yMLphuaXDx4tr-73" value="loop" style="shape=umlFrame;whiteSpace=wrap;html=1;pointerEvents=0;width=50;height=20;" parent="1" vertex="1">
          <mxGeometry x="60" y="594" width="420" height="138" as="geometry" />
        </mxCell>
        <mxCell id="tDjdki0yMLphuaXDx4tr-74" value="FLYY" style="html=1;verticalAlign=bottom;endArrow=block;edgeStyle=elbowEdgeStyle;elbow=vertical;curved=0;rounded=0;" parent="1" edge="1">
          <mxGeometry relative="1" as="geometry">
            <mxPoint x="95" y="622" as="sourcePoint" />
            <Array as="points">
              <mxPoint x="325" y="622" />
            </Array>
            <mxPoint x="445" y="622" as="targetPoint" />
          </mxGeometry>
        </mxCell>
        <mxCell id="tDjdki0yMLphuaXDx4tr-75" value="DATA" style="html=1;verticalAlign=bottom;endArrow=open;dashed=1;endSize=8;edgeStyle=elbowEdgeStyle;elbow=vertical;curved=0;rounded=0;" parent="1" edge="1">
          <mxGeometry relative="1" as="geometry">
            <mxPoint x="95" y="653" as="targetPoint" />
            <Array as="points">
              <mxPoint x="350" y="653" />
            </Array>
            <mxPoint x="445" y="653" as="sourcePoint" />
          </mxGeometry>
        </mxCell>
        <mxCell id="tDjdki0yMLphuaXDx4tr-76" value="PIPE" style="html=1;verticalAlign=bottom;endArrow=block;edgeStyle=elbowEdgeStyle;elbow=horizontal;curved=0;rounded=0;" parent="1" edge="1">
          <mxGeometry relative="1" as="geometry">
            <mxPoint x="215.00000000000023" y="682" as="sourcePoint" />
            <Array as="points">
              <mxPoint x="325" y="682" />
            </Array>
            <mxPoint x="445" y="682" as="targetPoint" />
          </mxGeometry>
        </mxCell>
        <mxCell id="tDjdki0yMLphuaXDx4tr-77" value="DATA" style="html=1;verticalAlign=bottom;endArrow=open;dashed=1;endSize=8;edgeStyle=elbowEdgeStyle;elbow=vertical;curved=0;rounded=0;" parent="1" edge="1">
          <mxGeometry relative="1" as="geometry">
            <mxPoint x="215.00000000000023" y="712" as="targetPoint" />
            <Array as="points">
              <mxPoint x="350" y="712" />
            </Array>
            <mxPoint x="445" y="712" as="sourcePoint" />
          </mxGeometry>
        </mxCell>
        <mxCell id="tDjdki0yMLphuaXDx4tr-78" value="Game end" style="text;html=1;align=center;verticalAlign=middle;resizable=0;points=[];autosize=1;strokeColor=#36393d;fillColor=#eeeeee;" parent="1" vertex="1">
          <mxGeometry x="290" y="742" width="80" height="30" as="geometry" />
        </mxCell>
        <mxCell id="tDjdki0yMLphuaXDx4tr-79" value="DEAD" style="html=1;verticalAlign=bottom;endArrow=open;dashed=1;endSize=8;edgeStyle=elbowEdgeStyle;elbow=vertical;curved=0;rounded=0;" parent="1" edge="1">
          <mxGeometry relative="1" as="geometry">
            <mxPoint x="95.00000000000023" y="796.0000000000002" as="targetPoint" />
            <Array as="points">
              <mxPoint x="367" y="796" />
            </Array>
            <mxPoint x="445" y="796.0000000000002" as="sourcePoint" />
          </mxGeometry>
        </mxCell>
        <mxCell id="tDjdki0yMLphuaXDx4tr-80" value="DEAD" style="html=1;verticalAlign=bottom;endArrow=open;dashed=1;endSize=8;edgeStyle=elbowEdgeStyle;elbow=vertical;curved=0;rounded=0;" parent="1" edge="1">
          <mxGeometry relative="1" as="geometry">
            <mxPoint x="215.00000000000023" y="827" as="targetPoint" />
            <Array as="points">
              <mxPoint x="367" y="827" />
            </Array>
            <mxPoint x="445" y="827" as="sourcePoint" />
          </mxGeometry>
        </mxCell>
        <mxCell id="tDjdki0yMLphuaXDx4tr-81" value="QUIT" style="html=1;verticalAlign=bottom;endArrow=block;edgeStyle=elbowEdgeStyle;elbow=vertical;curved=0;rounded=0;" parent="1" edge="1">
          <mxGeometry relative="1" as="geometry">
            <mxPoint x="216" y="956" as="sourcePoint" />
            <Array as="points">
              <mxPoint x="301" y="956" />
            </Array>
            <mxPoint x="445" y="956" as="targetPoint" />
          </mxGeometry>
        </mxCell>
        <mxCell id="tDjdki0yMLphuaXDx4tr-82" value="ACKK" style="html=1;verticalAlign=bottom;endArrow=open;dashed=1;endSize=8;edgeStyle=elbowEdgeStyle;elbow=vertical;curved=0;rounded=0;" parent="1" edge="1">
          <mxGeometry relative="1" as="geometry">
            <mxPoint x="215" y="986" as="targetPoint" />
            <Array as="points">
              <mxPoint x="335" y="986" />
            </Array>
            <mxPoint x="445" y="986" as="sourcePoint" />
          </mxGeometry>
        </mxCell>
        <mxCell id="tDjdki0yMLphuaXDx4tr-83" value="Exit game" style="text;html=1;align=center;verticalAlign=middle;resizable=0;points=[];autosize=1;strokeColor=#36393d;fillColor=#eeeeee;" parent="1" vertex="1">
          <mxGeometry x="290" y="842" width="80" height="30" as="geometry" />
        </mxCell>
        <mxCell id="tDjdki0yMLphuaXDx4tr-84" value="QUIT" style="html=1;verticalAlign=bottom;endArrow=block;edgeStyle=elbowEdgeStyle;elbow=vertical;curved=0;rounded=0;" parent="1" edge="1">
          <mxGeometry relative="1" as="geometry">
            <mxPoint x="95.00000000000023" y="896.0000000000002" as="sourcePoint" />
            <Array as="points">
              <mxPoint x="301" y="896" />
            </Array>
            <mxPoint x="445" y="896" as="targetPoint" />
          </mxGeometry>
        </mxCell>
        <mxCell id="tDjdki0yMLphuaXDx4tr-85" value="ACKK" style="html=1;verticalAlign=bottom;endArrow=open;dashed=1;endSize=8;edgeStyle=elbowEdgeStyle;elbow=vertical;curved=0;rounded=0;" parent="1" edge="1">
          <mxGeometry relative="1" as="geometry">
            <mxPoint x="95.00000000000023" y="926.0000000000002" as="targetPoint" />
            <Array as="points">
              <mxPoint x="335" y="926" />
            </Array>
            <mxPoint x="445" y="926" as="sourcePoint" />
          </mxGeometry>
        </mxCell>
        <mxCell id="tDjdki0yMLphuaXDx4tr-93" value="Client 1" style="shape=umlLifeline;perimeter=lifelinePerimeter;whiteSpace=wrap;html=1;container=0;dropTarget=0;collapsible=0;recursiveResize=0;outlineConnect=0;portConstraint=eastwest;newEdgeStyle={&quot;edgeStyle&quot;:&quot;elbowEdgeStyle&quot;,&quot;elbow&quot;:&quot;vertical&quot;,&quot;curved&quot;:0,&quot;rounded&quot;:0};" parent="1" vertex="1">
          <mxGeometry x="900" y="23" width="100" height="360" as="geometry" />
        </mxCell>
        <mxCell id="tDjdki0yMLphuaXDx4tr-94" value="" style="html=1;points=[];perimeter=orthogonalPerimeter;outlineConnect=0;targetShapes=umlLifeline;portConstraint=eastwest;newEdgeStyle={&quot;edgeStyle&quot;:&quot;elbowEdgeStyle&quot;,&quot;elbow&quot;:&quot;vertical&quot;,&quot;curved&quot;:0,&quot;rounded&quot;:0};" parent="tDjdki0yMLphuaXDx4tr-93" vertex="1">
          <mxGeometry x="45" y="70" width="10" height="250" as="geometry" />
        </mxCell>
        <mxCell id="tDjdki0yMLphuaXDx4tr-96" value="Client 2" style="shape=umlLifeline;perimeter=lifelinePerimeter;whiteSpace=wrap;html=1;container=0;dropTarget=0;collapsible=0;recursiveResize=0;outlineConnect=0;portConstraint=eastwest;newEdgeStyle={&quot;edgeStyle&quot;:&quot;elbowEdgeStyle&quot;,&quot;elbow&quot;:&quot;vertical&quot;,&quot;curved&quot;:0,&quot;rounded&quot;:0};" parent="1" vertex="1">
          <mxGeometry x="1020" y="23" width="100" height="360" as="geometry" />
        </mxCell>
        <mxCell id="tDjdki0yMLphuaXDx4tr-97" value="" style="html=1;points=[];perimeter=orthogonalPerimeter;outlineConnect=0;targetShapes=umlLifeline;portConstraint=eastwest;newEdgeStyle={&quot;edgeStyle&quot;:&quot;elbowEdgeStyle&quot;,&quot;elbow&quot;:&quot;vertical&quot;,&quot;curved&quot;:0,&quot;rounded&quot;:0};" parent="tDjdki0yMLphuaXDx4tr-96" vertex="1">
          <mxGeometry x="45" y="70" width="10" height="250" as="geometry" />
        </mxCell>
        <mxCell id="tDjdki0yMLphuaXDx4tr-99" value="Server" style="shape=umlLifeline;perimeter=lifelinePerimeter;whiteSpace=wrap;html=1;container=0;dropTarget=0;collapsible=0;recursiveResize=0;outlineConnect=0;portConstraint=eastwest;newEdgeStyle={&quot;edgeStyle&quot;:&quot;elbowEdgeStyle&quot;,&quot;elbow&quot;:&quot;vertical&quot;,&quot;curved&quot;:0,&quot;rounded&quot;:0};" parent="1" vertex="1">
          <mxGeometry x="1260" y="23" width="100" height="360" as="geometry" />
        </mxCell>
        <mxCell id="tDjdki0yMLphuaXDx4tr-100" value="" style="html=1;points=[];perimeter=orthogonalPerimeter;outlineConnect=0;targetShapes=umlLifeline;portConstraint=eastwest;newEdgeStyle={&quot;edgeStyle&quot;:&quot;elbowEdgeStyle&quot;,&quot;elbow&quot;:&quot;vertical&quot;,&quot;curved&quot;:0,&quot;rounded&quot;:0};" parent="tDjdki0yMLphuaXDx4tr-99" vertex="1">
          <mxGeometry x="45" y="80" width="10" height="240" as="geometry" />
        </mxCell>
        <mxCell id="tDjdki0yMLphuaXDx4tr-101" value="Client 3" style="shape=umlLifeline;perimeter=lifelinePerimeter;whiteSpace=wrap;html=1;container=0;dropTarget=0;collapsible=0;recursiveResize=0;outlineConnect=0;portConstraint=eastwest;newEdgeStyle={&quot;edgeStyle&quot;:&quot;elbowEdgeStyle&quot;,&quot;elbow&quot;:&quot;vertical&quot;,&quot;curved&quot;:0,&quot;rounded&quot;:0};" parent="1" vertex="1">
          <mxGeometry x="1500" y="23" width="100" height="360" as="geometry" />
        </mxCell>
        <mxCell id="tDjdki0yMLphuaXDx4tr-102" value="" style="html=1;points=[];perimeter=orthogonalPerimeter;outlineConnect=0;targetShapes=umlLifeline;portConstraint=eastwest;newEdgeStyle={&quot;edgeStyle&quot;:&quot;elbowEdgeStyle&quot;,&quot;elbow&quot;:&quot;vertical&quot;,&quot;curved&quot;:0,&quot;rounded&quot;:0};" parent="tDjdki0yMLphuaXDx4tr-101" vertex="1">
          <mxGeometry x="45" y="70" width="10" height="250" as="geometry" />
        </mxCell>
        <mxCell id="tDjdki0yMLphuaXDx4tr-104" value="Lobby full senario" style="text;html=1;align=center;verticalAlign=middle;resizable=0;points=[];autosize=1;strokeColor=#36393d;fillColor=#eeeeee;" parent="1" vertex="1">
          <mxGeometry x="1130" y="73" width="120" height="30" as="geometry" />
        </mxCell>
        <mxCell id="tDjdki0yMLphuaXDx4tr-105" value="LOBBY" style="html=1;verticalAlign=bottom;endArrow=block;edgeStyle=elbowEdgeStyle;elbow=vertical;curved=0;rounded=0;" parent="1" edge="1">
          <mxGeometry relative="1" as="geometry">
            <mxPoint x="955" y="127" as="sourcePoint" />
            <Array as="points">
              <mxPoint x="1185" y="127" />
            </Array>
            <mxPoint x="1305" y="127" as="targetPoint" />
          </mxGeometry>
        </mxCell>
        <mxCell id="tDjdki0yMLphuaXDx4tr-106" value="ACKK" style="html=1;verticalAlign=bottom;endArrow=open;dashed=1;endSize=8;edgeStyle=elbowEdgeStyle;elbow=vertical;curved=0;rounded=0;" parent="1" edge="1">
          <mxGeometry relative="1" as="geometry">
            <mxPoint x="955" y="158" as="targetPoint" />
            <Array as="points">
              <mxPoint x="1210" y="158" />
            </Array>
            <mxPoint x="1305" y="158" as="sourcePoint" />
          </mxGeometry>
        </mxCell>
        <mxCell id="tDjdki0yMLphuaXDx4tr-107" value="JOIN" style="html=1;verticalAlign=bottom;endArrow=block;edgeStyle=elbowEdgeStyle;elbow=vertical;curved=0;rounded=0;" parent="1" edge="1">
          <mxGeometry relative="1" as="geometry">
            <mxPoint x="1075" y="187" as="sourcePoint" />
            <Array as="points">
              <mxPoint x="1195" y="187" />
            </Array>
            <mxPoint x="1305" y="187" as="targetPoint" />
          </mxGeometry>
        </mxCell>
        <mxCell id="tDjdki0yMLphuaXDx4tr-108" value="ACKK" style="html=1;verticalAlign=bottom;endArrow=open;dashed=1;endSize=8;edgeStyle=elbowEdgeStyle;elbow=vertical;curved=0;rounded=0;" parent="1" edge="1">
          <mxGeometry x="0.0029" relative="1" as="geometry">
            <mxPoint x="1075" y="217" as="targetPoint" />
            <Array as="points">
              <mxPoint x="1210" y="217" />
            </Array>
            <mxPoint x="1305" y="217" as="sourcePoint" />
            <mxPoint as="offset" />
          </mxGeometry>
        </mxCell>
        <mxCell id="tDjdki0yMLphuaXDx4tr-111" value="JOIN" style="html=1;verticalAlign=bottom;endArrow=none;edgeStyle=elbowEdgeStyle;elbow=vertical;curved=0;rounded=0;startArrow=block;startFill=1;endFill=0;" parent="1" edge="1">
          <mxGeometry relative="1" as="geometry">
            <mxPoint x="1315" y="271.31" as="sourcePoint" />
            <Array as="points">
              <mxPoint x="1435" y="271.31" />
            </Array>
            <mxPoint x="1545" y="271.31" as="targetPoint" />
          </mxGeometry>
        </mxCell>
        <mxCell id="tDjdki0yMLphuaXDx4tr-112" value="EROR &quot;The lobby is full&quot;" style="html=1;verticalAlign=bottom;endArrow=none;dashed=1;endSize=8;edgeStyle=elbowEdgeStyle;elbow=vertical;curved=0;rounded=0;startArrow=open;startFill=0;endFill=0;" parent="1" edge="1">
          <mxGeometry x="0.0029" relative="1" as="geometry">
            <mxPoint x="1315" y="301.31" as="targetPoint" />
            <Array as="points">
              <mxPoint x="1450" y="301.31" />
            </Array>
            <mxPoint x="1545" y="301.31" as="sourcePoint" />
            <mxPoint as="offset" />
          </mxGeometry>
        </mxCell>
        <mxCell id="tDjdki0yMLphuaXDx4tr-113" value="&lt;p style=&quot;margin:0px;margin-top:10px;margin-left:10px;text-align:left;&quot;&gt;Lobby is full&lt;/p&gt;" style="shape=note;html=1;size=15;spacingLeft=5;align=left;html=1;overflow=fill;whiteSpace=wrap;align=center;fillColor=#FFFFCC;" parent="1" vertex="1">
          <mxGeometry x="1320" y="219" width="100" height="30" as="geometry" />
        </mxCell>
        <mxCell id="umZdBFUxBzNXWE7ICVys-1" value="STRT" style="html=1;verticalAlign=bottom;endArrow=block;edgeStyle=elbowEdgeStyle;elbow=vertical;curved=0;rounded=0;" parent="1" target="tDjdki0yMLphuaXDx4tr-54" edge="1">
          <mxGeometry relative="1" as="geometry">
            <mxPoint x="95" y="457.0000000000001" as="sourcePoint" />
            <Array as="points">
              <mxPoint x="180" y="457.0000000000001" />
            </Array>
            <mxPoint x="265" y="457.0000000000001" as="targetPoint" />
          </mxGeometry>
        </mxCell>
        <mxCell id="umZdBFUxBzNXWE7ICVys-2" value="STRT" style="html=1;verticalAlign=bottom;endArrow=block;edgeStyle=elbowEdgeStyle;elbow=vertical;curved=0;rounded=0;" parent="1" target="tDjdki0yMLphuaXDx4tr-54" edge="1">
          <mxGeometry relative="1" as="geometry">
            <mxPoint x="215" y="480.6700000000001" as="sourcePoint" />
            <Array as="points">
              <mxPoint x="300" y="480.6700000000001" />
            </Array>
            <mxPoint x="420" y="481" as="targetPoint" />
          </mxGeometry>
        </mxCell>
      </root>
    </mxGraphModel>
  </diagram>
</mxfile>
